<?xml version="1.0" encoding="UTF-8" standalone="no"?><svg xmlns="http://www.w3.org/2000/svg" xmlns:xlink="http://www.w3.org/1999/xlink" fill="#2e2e2e" height="54.2" preserveAspectRatio="xMidYMid meet" version="1" viewBox="-0.9 -0.3 57.8 54.2" width="57.8" zoomAndPan="magnify"><g data-name="2" id="change1_1"><path d="M52.89,28.039H50.6V51.521a2.434,2.434,0,0,1-2.552,2.28H34.52V42.7a6.58,6.58,0,1,0-13.159,0V53.8H7.832A2.418,2.418,0,0,1,5.29,51.529V28.039H2.99c-2.549,0-3.93-2.4-2.26-3.94L25.9.83a3.505,3.505,0,0,1,4.54.009q4.5,4.239,9.011,8.479V2.154A2.155,2.155,0,0,1,41.607,0h4.079A2.154,2.154,0,0,1,47.84,2.154V17.21q3.666,3.448,7.331,6.9C56.81,25.662,55.43,28.039,52.89,28.039Z"/></g></svg>